<mxfile host="app.diagrams.net" agent="Mozilla/5.0 (Windows NT 10.0; Win64; x64) AppleWebKit/537.36 (KHTML, like Gecko) Chrome/141.0.0.0 Safari/537.36 Edg/141.0.0.0" version="28.2.8">
  <diagram name="페이지-1" id="HVuBv9hH7h0T0q9abSWi">
    <mxGraphModel dx="3322" dy="889" grid="1" gridSize="10" guides="1" tooltips="1" connect="1" arrows="1" fold="1" page="1" pageScale="1" pageWidth="827" pageHeight="1169" math="0" shadow="0">
      <root>
        <mxCell id="0" />
        <mxCell id="1" parent="0" />
        <mxCell id="j-JWN3iHQjOqYSGqvCPs-36" value="EVENT" style="rounded=0;whiteSpace=wrap;html=1;fontSize=30;" parent="1" vertex="1">
          <mxGeometry x="-880" y="295" width="220" height="140" as="geometry" />
        </mxCell>
        <mxCell id="Fow3iS3sr-om2UNAMFGq-1" value="WINNER" style="rounded=0;whiteSpace=wrap;html=1;fontSize=30;" parent="1" vertex="1">
          <mxGeometry x="-500" y="295" width="220" height="140" as="geometry" />
        </mxCell>
        <mxCell id="Fow3iS3sr-om2UNAMFGq-2" value="PARTNER" style="rounded=0;whiteSpace=wrap;html=1;fontSize=30;" parent="1" vertex="1">
          <mxGeometry x="-1240" y="295" width="220" height="140" as="geometry" />
        </mxCell>
        <mxCell id="Fow3iS3sr-om2UNAMFGq-5" value="" style="edgeStyle=entityRelationEdgeStyle;fontSize=12;html=1;endArrow=ERzeroToMany;endFill=1;rounded=0;exitX=1;exitY=0.5;exitDx=0;exitDy=0;entryX=0;entryY=0.5;entryDx=0;entryDy=0;" parent="1" source="Fow3iS3sr-om2UNAMFGq-2" target="j-JWN3iHQjOqYSGqvCPs-36" edge="1">
          <mxGeometry width="100" height="100" relative="1" as="geometry">
            <mxPoint x="-610" y="415" as="sourcePoint" />
            <mxPoint x="-510" y="315" as="targetPoint" />
          </mxGeometry>
        </mxCell>
        <mxCell id="Fow3iS3sr-om2UNAMFGq-6" value="" style="edgeStyle=entityRelationEdgeStyle;fontSize=12;html=1;endArrow=ERzeroToMany;endFill=1;rounded=0;exitX=1;exitY=0.5;exitDx=0;exitDy=0;entryX=0;entryY=0.5;entryDx=0;entryDy=0;" parent="1" source="Fow3iS3sr-om2UNAMFGq-45" target="Fow3iS3sr-om2UNAMFGq-1" edge="1">
          <mxGeometry width="100" height="100" relative="1" as="geometry">
            <mxPoint x="-610" y="415" as="sourcePoint" />
            <mxPoint x="-510" y="315" as="targetPoint" />
          </mxGeometry>
        </mxCell>
        <mxCell id="Fow3iS3sr-om2UNAMFGq-7" value="evet_id(PK)" style="strokeWidth=2;html=1;shape=mxgraph.flowchart.start_1;whiteSpace=wrap;" parent="1" vertex="1">
          <mxGeometry x="-570" y="655" width="100" height="60" as="geometry" />
        </mxCell>
        <mxCell id="Fow3iS3sr-om2UNAMFGq-8" value="event_name" style="strokeWidth=2;html=1;shape=mxgraph.flowchart.start_1;whiteSpace=wrap;" parent="1" vertex="1">
          <mxGeometry x="-1170" y="655" width="100" height="60" as="geometry" />
        </mxCell>
        <mxCell id="Fow3iS3sr-om2UNAMFGq-9" value="start_date" style="strokeWidth=2;html=1;shape=mxgraph.flowchart.start_1;whiteSpace=wrap;" parent="1" vertex="1">
          <mxGeometry x="-670" y="655" width="100" height="60" as="geometry" />
        </mxCell>
        <mxCell id="Fow3iS3sr-om2UNAMFGq-10" value="end_date" style="strokeWidth=2;html=1;shape=mxgraph.flowchart.start_1;whiteSpace=wrap;" parent="1" vertex="1">
          <mxGeometry x="-870" y="655" width="100" height="60" as="geometry" />
        </mxCell>
        <mxCell id="Fow3iS3sr-om2UNAMFGq-11" value="event_type" style="strokeWidth=2;html=1;shape=mxgraph.flowchart.start_1;whiteSpace=wrap;" parent="1" vertex="1">
          <mxGeometry x="-770" y="655" width="100" height="60" as="geometry" />
        </mxCell>
        <mxCell id="Fow3iS3sr-om2UNAMFGq-12" value="event_status" style="strokeWidth=2;html=1;shape=mxgraph.flowchart.start_1;whiteSpace=wrap;" parent="1" vertex="1">
          <mxGeometry x="-470" y="655" width="100" height="60" as="geometry" />
        </mxCell>
        <mxCell id="Fow3iS3sr-om2UNAMFGq-13" value="event_detail" style="strokeWidth=2;html=1;shape=mxgraph.flowchart.start_1;whiteSpace=wrap;" parent="1" vertex="1">
          <mxGeometry x="-1070" y="655" width="100" height="60" as="geometry" />
        </mxCell>
        <mxCell id="Fow3iS3sr-om2UNAMFGq-14" value="event_image" style="strokeWidth=2;html=1;shape=mxgraph.flowchart.start_1;whiteSpace=wrap;" parent="1" vertex="1">
          <mxGeometry x="-970" y="655" width="100" height="60" as="geometry" />
        </mxCell>
        <mxCell id="Fow3iS3sr-om2UNAMFGq-15" value="movie_id(FK)" style="strokeWidth=2;html=1;shape=mxgraph.flowchart.start_1;whiteSpace=wrap;" parent="1" vertex="1">
          <mxGeometry x="-1370" y="655" width="100" height="60" as="geometry" />
        </mxCell>
        <mxCell id="Fow3iS3sr-om2UNAMFGq-16" value="partner_name(FK)" style="strokeWidth=2;html=1;shape=mxgraph.flowchart.start_1;whiteSpace=wrap;" parent="1" vertex="1">
          <mxGeometry x="-1470" y="655" width="100" height="60" as="geometry" />
        </mxCell>
        <mxCell id="Fow3iS3sr-om2UNAMFGq-17" value="admin_id(FK)" style="strokeWidth=2;html=1;shape=mxgraph.flowchart.start_1;whiteSpace=wrap;" parent="1" vertex="1">
          <mxGeometry x="-1270" y="655" width="100" height="60" as="geometry" />
        </mxCell>
        <mxCell id="Fow3iS3sr-om2UNAMFGq-18" value="" style="endArrow=none;html=1;rounded=0;exitX=0.5;exitY=0;exitDx=0;exitDy=0;exitPerimeter=0;entryX=0.5;entryY=1;entryDx=0;entryDy=0;" parent="1" source="Fow3iS3sr-om2UNAMFGq-8" target="j-JWN3iHQjOqYSGqvCPs-36" edge="1">
          <mxGeometry width="50" height="50" relative="1" as="geometry">
            <mxPoint x="-1050" y="615" as="sourcePoint" />
            <mxPoint x="-1000" y="565" as="targetPoint" />
          </mxGeometry>
        </mxCell>
        <mxCell id="Fow3iS3sr-om2UNAMFGq-19" value="" style="endArrow=none;html=1;rounded=0;exitX=0.5;exitY=0;exitDx=0;exitDy=0;exitPerimeter=0;entryX=0.5;entryY=1;entryDx=0;entryDy=0;" parent="1" source="Fow3iS3sr-om2UNAMFGq-13" target="j-JWN3iHQjOqYSGqvCPs-36" edge="1">
          <mxGeometry width="50" height="50" relative="1" as="geometry">
            <mxPoint x="-1050" y="615" as="sourcePoint" />
            <mxPoint x="-1000" y="565" as="targetPoint" />
          </mxGeometry>
        </mxCell>
        <mxCell id="Fow3iS3sr-om2UNAMFGq-20" value="" style="endArrow=none;html=1;rounded=0;exitX=0.5;exitY=0;exitDx=0;exitDy=0;exitPerimeter=0;entryX=0.5;entryY=1;entryDx=0;entryDy=0;" parent="1" source="Fow3iS3sr-om2UNAMFGq-14" target="j-JWN3iHQjOqYSGqvCPs-36" edge="1">
          <mxGeometry width="50" height="50" relative="1" as="geometry">
            <mxPoint x="-850" y="925" as="sourcePoint" />
            <mxPoint x="-560" y="705" as="targetPoint" />
          </mxGeometry>
        </mxCell>
        <mxCell id="Fow3iS3sr-om2UNAMFGq-21" value="" style="endArrow=none;html=1;rounded=0;exitX=0.5;exitY=0;exitDx=0;exitDy=0;exitPerimeter=0;entryX=0.5;entryY=1;entryDx=0;entryDy=0;" parent="1" source="Fow3iS3sr-om2UNAMFGq-10" target="j-JWN3iHQjOqYSGqvCPs-36" edge="1">
          <mxGeometry width="50" height="50" relative="1" as="geometry">
            <mxPoint x="-730" y="805" as="sourcePoint" />
            <mxPoint x="-440" y="585" as="targetPoint" />
          </mxGeometry>
        </mxCell>
        <mxCell id="Fow3iS3sr-om2UNAMFGq-22" value="" style="endArrow=none;html=1;rounded=0;exitX=0.5;exitY=0;exitDx=0;exitDy=0;exitPerimeter=0;entryX=0.5;entryY=1;entryDx=0;entryDy=0;" parent="1" source="Fow3iS3sr-om2UNAMFGq-11" target="j-JWN3iHQjOqYSGqvCPs-36" edge="1">
          <mxGeometry width="50" height="50" relative="1" as="geometry">
            <mxPoint x="-630" y="825" as="sourcePoint" />
            <mxPoint x="-340" y="605" as="targetPoint" />
          </mxGeometry>
        </mxCell>
        <mxCell id="Fow3iS3sr-om2UNAMFGq-23" value="" style="endArrow=none;html=1;rounded=0;exitX=0.5;exitY=0;exitDx=0;exitDy=0;exitPerimeter=0;entryX=0.5;entryY=1;entryDx=0;entryDy=0;" parent="1" source="Fow3iS3sr-om2UNAMFGq-9" target="j-JWN3iHQjOqYSGqvCPs-36" edge="1">
          <mxGeometry width="50" height="50" relative="1" as="geometry">
            <mxPoint x="-630" y="825" as="sourcePoint" />
            <mxPoint x="-340" y="605" as="targetPoint" />
          </mxGeometry>
        </mxCell>
        <mxCell id="Fow3iS3sr-om2UNAMFGq-24" value="" style="endArrow=none;html=1;rounded=0;exitX=0.5;exitY=0;exitDx=0;exitDy=0;exitPerimeter=0;" parent="1" source="Fow3iS3sr-om2UNAMFGq-7" edge="1">
          <mxGeometry width="50" height="50" relative="1" as="geometry">
            <mxPoint x="-540" y="915" as="sourcePoint" />
            <mxPoint x="-770" y="435" as="targetPoint" />
          </mxGeometry>
        </mxCell>
        <mxCell id="Fow3iS3sr-om2UNAMFGq-25" value="" style="endArrow=none;html=1;rounded=0;exitX=0.5;exitY=0;exitDx=0;exitDy=0;exitPerimeter=0;entryX=0.5;entryY=1;entryDx=0;entryDy=0;" parent="1" source="Fow3iS3sr-om2UNAMFGq-12" target="j-JWN3iHQjOqYSGqvCPs-36" edge="1">
          <mxGeometry width="50" height="50" relative="1" as="geometry">
            <mxPoint x="-430" y="885" as="sourcePoint" />
            <mxPoint x="-140" y="665" as="targetPoint" />
          </mxGeometry>
        </mxCell>
        <mxCell id="Fow3iS3sr-om2UNAMFGq-26" value="partner_name(PK))" style="strokeWidth=2;html=1;shape=mxgraph.flowchart.start_1;whiteSpace=wrap;" parent="1" vertex="1">
          <mxGeometry x="-1445" y="365" width="110" height="60" as="geometry" />
        </mxCell>
        <mxCell id="Fow3iS3sr-om2UNAMFGq-27" value="partner_type" style="strokeWidth=2;html=1;shape=mxgraph.flowchart.start_1;whiteSpace=wrap;" parent="1" vertex="1">
          <mxGeometry x="-1445" y="425" width="110" height="60" as="geometry" />
        </mxCell>
        <mxCell id="Fow3iS3sr-om2UNAMFGq-28" value="partner_tel" style="strokeWidth=2;html=1;shape=mxgraph.flowchart.start_1;whiteSpace=wrap;" parent="1" vertex="1">
          <mxGeometry x="-1445" y="245" width="110" height="60" as="geometry" />
        </mxCell>
        <mxCell id="Fow3iS3sr-om2UNAMFGq-29" value="partner_manager" style="strokeWidth=2;html=1;shape=mxgraph.flowchart.start_1;whiteSpace=wrap;" parent="1" vertex="1">
          <mxGeometry x="-1445" y="305" width="110" height="60" as="geometry" />
        </mxCell>
        <mxCell id="Fow3iS3sr-om2UNAMFGq-31" value="" style="endArrow=none;html=1;rounded=0;entryX=0;entryY=0.5;entryDx=0;entryDy=0;exitX=1;exitY=0.5;exitDx=0;exitDy=0;exitPerimeter=0;" parent="1" source="Fow3iS3sr-om2UNAMFGq-28" target="Fow3iS3sr-om2UNAMFGq-2" edge="1">
          <mxGeometry width="50" height="50" relative="1" as="geometry">
            <mxPoint x="-1310" y="545" as="sourcePoint" />
            <mxPoint x="-1260" y="495" as="targetPoint" />
          </mxGeometry>
        </mxCell>
        <mxCell id="Fow3iS3sr-om2UNAMFGq-32" value="" style="endArrow=none;html=1;rounded=0;entryX=0;entryY=0.5;entryDx=0;entryDy=0;exitX=1;exitY=0.5;exitDx=0;exitDy=0;exitPerimeter=0;" parent="1" source="Fow3iS3sr-om2UNAMFGq-29" target="Fow3iS3sr-om2UNAMFGq-2" edge="1">
          <mxGeometry width="50" height="50" relative="1" as="geometry">
            <mxPoint x="-1300" y="385" as="sourcePoint" />
            <mxPoint x="-1210" y="455" as="targetPoint" />
          </mxGeometry>
        </mxCell>
        <mxCell id="Fow3iS3sr-om2UNAMFGq-33" value="" style="endArrow=none;html=1;rounded=0;entryX=0;entryY=0.5;entryDx=0;entryDy=0;exitX=1;exitY=0.5;exitDx=0;exitDy=0;exitPerimeter=0;" parent="1" source="Fow3iS3sr-om2UNAMFGq-26" target="Fow3iS3sr-om2UNAMFGq-2" edge="1">
          <mxGeometry width="50" height="50" relative="1" as="geometry">
            <mxPoint x="-1260" y="435" as="sourcePoint" />
            <mxPoint x="-1170" y="505" as="targetPoint" />
          </mxGeometry>
        </mxCell>
        <mxCell id="Fow3iS3sr-om2UNAMFGq-34" value="" style="endArrow=none;html=1;rounded=0;entryX=0;entryY=0.5;entryDx=0;entryDy=0;exitX=1;exitY=0.5;exitDx=0;exitDy=0;exitPerimeter=0;" parent="1" source="Fow3iS3sr-om2UNAMFGq-27" target="Fow3iS3sr-om2UNAMFGq-2" edge="1">
          <mxGeometry width="50" height="50" relative="1" as="geometry">
            <mxPoint x="-1260" y="465" as="sourcePoint" />
            <mxPoint x="-1170" y="535" as="targetPoint" />
          </mxGeometry>
        </mxCell>
        <mxCell id="Fow3iS3sr-om2UNAMFGq-36" value="winner_id(PK)" style="strokeWidth=2;html=1;shape=mxgraph.flowchart.start_1;whiteSpace=wrap;" parent="1" vertex="1">
          <mxGeometry x="-200" y="240" width="100" height="60" as="geometry" />
        </mxCell>
        <mxCell id="Fow3iS3sr-om2UNAMFGq-37" value="winner_date" style="strokeWidth=2;html=1;shape=mxgraph.flowchart.start_1;whiteSpace=wrap;" parent="1" vertex="1">
          <mxGeometry x="-200" y="300" width="100" height="60" as="geometry" />
        </mxCell>
        <mxCell id="Fow3iS3sr-om2UNAMFGq-38" value="prize_name" style="strokeWidth=2;html=1;shape=mxgraph.flowchart.start_1;whiteSpace=wrap;" parent="1" vertex="1">
          <mxGeometry x="-200" y="420" width="100" height="60" as="geometry" />
        </mxCell>
        <mxCell id="Fow3iS3sr-om2UNAMFGq-39" value="prize_qty" style="strokeWidth=2;html=1;shape=mxgraph.flowchart.start_1;whiteSpace=wrap;" parent="1" vertex="1">
          <mxGeometry x="-200" y="360" width="100" height="60" as="geometry" />
        </mxCell>
        <mxCell id="Fow3iS3sr-om2UNAMFGq-40" value="" style="endArrow=none;html=1;rounded=0;entryX=0;entryY=0.5;entryDx=0;entryDy=0;entryPerimeter=0;exitX=1;exitY=0.5;exitDx=0;exitDy=0;" parent="1" source="Fow3iS3sr-om2UNAMFGq-1" target="Fow3iS3sr-om2UNAMFGq-38" edge="1">
          <mxGeometry width="50" height="50" relative="1" as="geometry">
            <mxPoint x="-270" y="535" as="sourcePoint" />
            <mxPoint x="-220" y="485" as="targetPoint" />
          </mxGeometry>
        </mxCell>
        <mxCell id="Fow3iS3sr-om2UNAMFGq-41" value="" style="endArrow=none;html=1;rounded=0;entryX=0;entryY=0.5;entryDx=0;entryDy=0;entryPerimeter=0;exitX=1;exitY=0.5;exitDx=0;exitDy=0;" parent="1" source="Fow3iS3sr-om2UNAMFGq-1" target="Fow3iS3sr-om2UNAMFGq-39" edge="1">
          <mxGeometry width="50" height="50" relative="1" as="geometry">
            <mxPoint x="-270" y="535" as="sourcePoint" />
            <mxPoint x="-220" y="485" as="targetPoint" />
          </mxGeometry>
        </mxCell>
        <mxCell id="Fow3iS3sr-om2UNAMFGq-42" value="" style="endArrow=none;html=1;rounded=0;entryX=0;entryY=0.5;entryDx=0;entryDy=0;entryPerimeter=0;exitX=1;exitY=0.5;exitDx=0;exitDy=0;" parent="1" source="Fow3iS3sr-om2UNAMFGq-1" target="Fow3iS3sr-om2UNAMFGq-37" edge="1">
          <mxGeometry width="50" height="50" relative="1" as="geometry">
            <mxPoint x="-270" y="535" as="sourcePoint" />
            <mxPoint x="-220" y="485" as="targetPoint" />
          </mxGeometry>
        </mxCell>
        <mxCell id="Fow3iS3sr-om2UNAMFGq-43" value="" style="endArrow=none;html=1;rounded=0;entryX=0;entryY=0.5;entryDx=0;entryDy=0;entryPerimeter=0;exitX=1;exitY=0.5;exitDx=0;exitDy=0;" parent="1" source="Fow3iS3sr-om2UNAMFGq-1" target="Fow3iS3sr-om2UNAMFGq-36" edge="1">
          <mxGeometry width="50" height="50" relative="1" as="geometry">
            <mxPoint x="-270" y="535" as="sourcePoint" />
            <mxPoint x="-220" y="485" as="targetPoint" />
          </mxGeometry>
        </mxCell>
        <mxCell id="Fow3iS3sr-om2UNAMFGq-44" value="연계" style="rhombus;whiteSpace=wrap;html=1;" parent="1" vertex="1">
          <mxGeometry x="-990" y="325" width="80" height="80" as="geometry" />
        </mxCell>
        <mxCell id="Fow3iS3sr-om2UNAMFGq-45" value="당첨" style="rhombus;whiteSpace=wrap;html=1;" parent="1" vertex="1">
          <mxGeometry x="-620" y="325" width="80" height="80" as="geometry" />
        </mxCell>
        <mxCell id="Fow3iS3sr-om2UNAMFGq-47" value="" style="endArrow=none;html=1;rounded=0;exitX=1;exitY=0.5;exitDx=0;exitDy=0;entryX=0;entryY=0.5;entryDx=0;entryDy=0;" parent="1" source="j-JWN3iHQjOqYSGqvCPs-36" target="Fow3iS3sr-om2UNAMFGq-45" edge="1">
          <mxGeometry width="50" height="50" relative="1" as="geometry">
            <mxPoint x="-670" y="365" as="sourcePoint" />
            <mxPoint x="-620" y="315" as="targetPoint" />
          </mxGeometry>
        </mxCell>
        <mxCell id="Fow3iS3sr-om2UNAMFGq-48" value="MOVIE" style="rounded=0;whiteSpace=wrap;html=1;fontSize=30;" parent="1" vertex="1">
          <mxGeometry x="-1390" y="745" width="130" height="70" as="geometry" />
        </mxCell>
        <mxCell id="Fow3iS3sr-om2UNAMFGq-49" value="USER" style="rounded=0;whiteSpace=wrap;html=1;fontSize=30;" parent="1" vertex="1">
          <mxGeometry x="-1240" y="745" width="125" height="70" as="geometry" />
        </mxCell>
        <mxCell id="Fow3iS3sr-om2UNAMFGq-50" value="" style="endArrow=none;html=1;rounded=0;exitX=0.5;exitY=1;exitDx=0;exitDy=0;exitPerimeter=0;entryX=0.5;entryY=0;entryDx=0;entryDy=0;" parent="1" source="Fow3iS3sr-om2UNAMFGq-15" target="Fow3iS3sr-om2UNAMFGq-48" edge="1">
          <mxGeometry width="50" height="50" relative="1" as="geometry">
            <mxPoint x="-1130" y="635" as="sourcePoint" />
            <mxPoint x="-1080" y="585" as="targetPoint" />
          </mxGeometry>
        </mxCell>
        <mxCell id="Fow3iS3sr-om2UNAMFGq-51" value="" style="endArrow=none;html=1;rounded=0;exitX=0.5;exitY=1;exitDx=0;exitDy=0;exitPerimeter=0;entryX=0.5;entryY=0;entryDx=0;entryDy=0;" parent="1" source="Fow3iS3sr-om2UNAMFGq-17" target="Fow3iS3sr-om2UNAMFGq-49" edge="1">
          <mxGeometry width="50" height="50" relative="1" as="geometry">
            <mxPoint x="-1130" y="635" as="sourcePoint" />
            <mxPoint x="-1080" y="585" as="targetPoint" />
          </mxGeometry>
        </mxCell>
        <mxCell id="Fow3iS3sr-om2UNAMFGq-53" value="" style="endArrow=none;html=1;rounded=0;exitX=0.5;exitY=0;exitDx=0;exitDy=0;exitPerimeter=0;entryX=0.5;entryY=1;entryDx=0;entryDy=0;" parent="1" source="Fow3iS3sr-om2UNAMFGq-17" target="j-JWN3iHQjOqYSGqvCPs-36" edge="1">
          <mxGeometry width="50" height="50" relative="1" as="geometry">
            <mxPoint x="-1130" y="635" as="sourcePoint" />
            <mxPoint x="-1080" y="585" as="targetPoint" />
          </mxGeometry>
        </mxCell>
        <mxCell id="Fow3iS3sr-om2UNAMFGq-54" value="" style="endArrow=none;html=1;rounded=0;exitX=0.5;exitY=0;exitDx=0;exitDy=0;exitPerimeter=0;entryX=0.5;entryY=1;entryDx=0;entryDy=0;" parent="1" source="Fow3iS3sr-om2UNAMFGq-15" target="j-JWN3iHQjOqYSGqvCPs-36" edge="1">
          <mxGeometry width="50" height="50" relative="1" as="geometry">
            <mxPoint x="-1130" y="635" as="sourcePoint" />
            <mxPoint x="-1080" y="585" as="targetPoint" />
          </mxGeometry>
        </mxCell>
        <mxCell id="Fow3iS3sr-om2UNAMFGq-55" value="" style="endArrow=none;html=1;rounded=0;exitX=0.5;exitY=0;exitDx=0;exitDy=0;exitPerimeter=0;entryX=0.5;entryY=1;entryDx=0;entryDy=0;" parent="1" source="Fow3iS3sr-om2UNAMFGq-16" target="j-JWN3iHQjOqYSGqvCPs-36" edge="1">
          <mxGeometry width="50" height="50" relative="1" as="geometry">
            <mxPoint x="-1160" y="560" as="sourcePoint" />
            <mxPoint x="-1110" y="510" as="targetPoint" />
          </mxGeometry>
        </mxCell>
        <mxCell id="Fow3iS3sr-om2UNAMFGq-56" value="evet_id(FK)" style="strokeWidth=2;html=1;shape=mxgraph.flowchart.start_1;whiteSpace=wrap;" parent="1" vertex="1">
          <mxGeometry x="-200" y="480" width="100" height="60" as="geometry" />
        </mxCell>
        <mxCell id="Fow3iS3sr-om2UNAMFGq-57" value="" style="endArrow=none;html=1;rounded=0;entryX=1;entryY=0.5;entryDx=0;entryDy=0;exitX=0;exitY=0.5;exitDx=0;exitDy=0;exitPerimeter=0;" parent="1" source="Fow3iS3sr-om2UNAMFGq-56" target="Fow3iS3sr-om2UNAMFGq-1" edge="1">
          <mxGeometry width="50" height="50" relative="1" as="geometry">
            <mxPoint x="-840" y="600" as="sourcePoint" />
            <mxPoint x="-790" y="550" as="targetPoint" />
          </mxGeometry>
        </mxCell>
      </root>
    </mxGraphModel>
  </diagram>
</mxfile>
